<svg width="54" height="54" viewBox="0 0 54 54" fill="none" xmlns="http://www.w3.org/2000/svg">
<path d="M19.0447 13.2588H31.5804V22.6606C31.5804 23.4917 31.2502 24.2889 30.6625 24.8766C30.0748 25.4643 29.2776 25.7945 28.4465 25.7945H22.1786C21.3474 25.7945 20.5503 25.4643 19.9626 24.8766C19.3749 24.2889 19.0447 23.4917 19.0447 22.6606V13.2588Z" fill="#77ACF1"/>
<path d="M37.8482 54H12.7768C10.2833 54 7.89189 53.0095 6.12872 51.2463C4.36554 49.4831 3.375 47.0917 3.375 44.5982V19.5268C3.375 17.0333 4.36554 14.6419 6.12872 12.8787C7.89189 11.1155 10.2833 10.125 12.7768 10.125H37.8482C40.3417 10.125 42.7331 11.1155 44.4963 12.8787C46.2595 14.6419 47.25 17.0333 47.25 19.5268V44.5982C47.25 47.0917 46.2595 49.4831 44.4963 51.2463C42.7331 53.0095 40.3417 54 37.8482 54ZM12.7768 16.3929C11.9456 16.3929 11.1485 16.723 10.5608 17.3108C9.97304 17.8985 9.64286 18.6956 9.64286 19.5268V44.5982C9.64286 45.4294 9.97304 46.2265 10.5608 46.8142C11.1485 47.402 11.9456 47.7321 12.7768 47.7321H37.8482C38.6794 47.7321 39.4765 47.402 40.0642 46.8142C40.652 46.2265 40.9821 45.4294 40.9821 44.5982V19.5268C40.9821 18.6956 40.652 17.8985 40.0642 17.3108C39.4765 16.723 38.6794 16.3929 37.8482 16.3929H12.7768Z" fill="#04009A"/>
</svg>
