<svg width="18" height="19" viewBox="0 0 18 19" fill="none" xmlns="http://www.w3.org/2000/svg">
<path fill-rule="evenodd" clip-rule="evenodd" d="M6.87045 4.04481C7.23561 4.33153 7.44559 4.75909 7.44559 5.21785C7.44559 8.91577 7.5704 9.91088 8.08061 10.2895C8.4154 10.5366 8.87416 10.5341 10.4199 10.4911C11.1385 10.47 12.0585 10.443 13.2636 10.443C13.7443 10.443 14.1971 10.6488 14.5041 11.0072C14.7891 11.3403 14.914 11.7754 14.8482 12.2038C14.2848 15.8512 11.1815 18.5 7.4692 18.5C3.35047 18.5 0 15.1495 0 11.0316C0 7.76634 2.46921 4.50104 5.50429 3.75387C5.97823 3.63833 6.48759 3.74628 6.87045 4.04481ZM5.888 4.97245C5.86101 4.97245 5.83402 4.97582 5.80704 4.98257C3.30241 5.59903 1.26497 8.31281 1.26497 11.0316C1.26497 14.4521 4.04789 17.235 7.4692 17.235C10.5532 17.235 13.1303 15.0382 13.5975 12.0107C13.6009 11.9854 13.6127 11.9121 13.5436 11.8303C13.4778 11.7535 13.3732 11.708 13.2636 11.708C12.0737 11.708 11.1654 11.735 10.4562 11.7552C8.73923 11.8066 8.02916 11.826 7.32753 11.3057C6.32425 10.5625 6.19234 9.31292 6.18145 5.80652L6.18063 5.21785C6.18063 5.14702 6.15027 5.08798 6.08955 5.04076C6.03305 4.99606 5.96136 4.97245 5.888 4.97245ZM15.2221 2.80539C16.7046 4.28709 17.6458 6.2343 17.6188 7.76659C17.6087 8.3645 17.1744 8.86374 16.5874 8.95229C15.4422 9.12517 14.1013 9.17745 12.9148 9.17745C11.8101 9.17745 10.8377 9.13276 10.2786 9.10071C9.57529 9.05939 9.01533 8.49859 8.97485 7.79527C8.90907 6.68041 8.76655 3.84773 8.86775 1.6568C8.89558 1.0201 9.41 0.513275 10.0391 0.502312C11.8413 0.450027 13.7008 1.28659 15.2221 2.80539ZM10.1471 1.76644H10.1285C10.0357 3.89074 10.1732 6.63487 10.2373 7.7219C10.2407 7.78683 10.2879 7.83406 10.352 7.83743C11.2189 7.88719 14.2059 8.02549 16.3538 7.70925C16.3589 6.52524 15.5485 4.91957 14.3282 3.70015C13.0767 2.45036 11.5959 1.76644 10.1471 1.76644Z" fill="black"/>
</svg>
