<svg width="20" height="19" viewBox="0 0 20 19" fill="none" xmlns="http://www.w3.org/2000/svg">
<path fill-rule="evenodd" clip-rule="evenodd" d="M14.0764 0.5C17.0569 0.5 19.4813 3.02543 19.4813 6.13104V12.869C19.4813 15.9736 17.0569 18.5 14.0764 18.5H6.28581C3.30532 18.5 0.880005 15.9736 0.880005 12.869V6.13104C0.880005 3.02543 3.30532 0.5 6.28581 0.5H14.0764ZM14.0764 1.90823H6.28581C4.05066 1.90823 2.23191 3.80277 2.23191 6.13104V12.869C2.23191 15.1972 4.05066 17.0918 6.28581 17.0918H14.0764C16.3115 17.0918 18.1294 15.1972 18.1294 12.869V12.6061L15.1571 12.6066C13.4474 12.6066 12.0558 11.1581 12.0549 9.37805C12.0549 7.59617 13.4465 6.14663 15.1571 6.14569L18.1294 6.14513V6.13104C18.1294 3.80277 16.3115 1.90823 14.0764 1.90823ZM18.1294 7.55336L15.1571 7.55392C14.1918 7.55486 13.4068 8.37257 13.4068 9.37711C13.4068 10.3807 14.1927 11.1984 15.1571 11.1984L18.1294 11.1979V7.55336ZM15.5695 8.61479C15.9426 8.61479 16.2454 8.93023 16.2454 9.3189C16.2454 9.70757 15.9426 10.023 15.5695 10.023H15.2883C14.9152 10.023 14.6123 9.70757 14.6123 9.3189C14.6123 8.93023 14.9152 8.61479 15.2883 8.61479H15.5695ZM10.51 4.76046C10.8832 4.76046 11.186 5.0759 11.186 5.46457C11.186 5.85325 10.8832 6.16869 10.51 6.16869H5.6441C5.27098 6.16869 4.96815 5.85325 4.96815 5.46457C4.96815 5.0759 5.27098 4.76046 5.6441 4.76046H10.51Z" fill="black"/>
</svg>
